<svg width="32" height="23" viewBox="0 0 32 23" fill="none" xmlns="http://www.w3.org/2000/svg">
<path id="Vector" d="M8 1.8998C8 1.01618 8.71638 0.299805 9.6 0.299805H30.4C31.2836 0.299805 32 1.01618 32 1.8998C32 2.78343 31.2836 3.4998 30.4 3.4998H9.6C8.71638 3.4998 8 2.78337 8 1.8998ZM30.4 9.8998H1.6C0.716375 9.8998 0 10.6162 0 11.4998C0 12.3834 0.716375 13.0998 1.6 13.0998H30.4C31.2836 13.0998 32 12.3834 32 11.4998C32 10.6162 31.2836 9.8998 30.4 9.8998ZM30.4 19.4998H16C15.1164 19.4998 14.4 20.2162 14.4 21.0998C14.4 21.9834 15.1164 22.6998 16 22.6998H30.4C31.2836 22.6998 32 21.9834 32 21.0998C32 20.2162 31.2836 19.4998 30.4 19.4998Z" fill="black"/>
</svg>
